<?xml version="1.0" encoding="utf-8"?>
<!-- Generator: Adobe Illustrator 15.0.0, SVG Export Plug-In  -->
<!DOCTYPE svg PUBLIC "-//W3C//DTD SVG 1.1//EN" "http://www.w3.org/Graphics/SVG/1.1/DTD/svg11.dtd" [
	<!ENTITY ns_flows "http://ns.adobe.com/Flows/1.0/">
]>
<svg version="1.1"
	 xmlns="http://www.w3.org/2000/svg" xmlns:xlink="http://www.w3.org/1999/xlink" xmlns:a="http://ns.adobe.com/AdobeSVGViewerExtensions/3.0/"
	 x="0px" y="0px" width="20px" height="20px" viewBox="-1 -1.196 20 20"
	 overflow="visible" enable-background="new -1 -1.196 20 20" xml:space="preserve">
<defs>
</defs>
<g>
	<g>
		<path fill="#444444" d="M18.065,8.727c-0.007-0.045-0.019-0.089-0.031-0.133c-0.002-0.007-0.004-0.014-0.006-0.021
			c-0.051-0.161-0.134-0.312-0.261-0.439L9.944,0.311C9.551-0.083,8.929-0.101,8.509,0.247l-1.67,1.669
			c-0.418,0.418-0.418,1.096,0,1.514l3.134,3.374H0.975C0.418,6.804,0.051,7.128,0,7.672v3.132c0,0.591,0.394,1,0.985,1h8.847l-3,3
			c-0.394-0.025-0.412,0.597-0.063,1.018l1.669,1.669c0.419,0.417,1.097,0.417,1.515,0l7.822-7.823
			C18.031,9.412,18.125,9.059,18.065,8.727z"/>
	</g>
</g>
</svg>
