<?xml version="1.0" encoding="utf-8"?>
<!-- Generator: Adobe Illustrator 15.0.0, SVG Export Plug-In  -->
<!DOCTYPE svg PUBLIC "-//W3C//DTD SVG 1.1//EN" "http://www.w3.org/Graphics/SVG/1.1/DTD/svg11.dtd" [
	<!ENTITY ns_flows "http://ns.adobe.com/Flows/1.0/">
]>
<svg version="1.1"
	 xmlns="http://www.w3.org/2000/svg" xmlns:xlink="http://www.w3.org/1999/xlink" xmlns:a="http://ns.adobe.com/AdobeSVGViewerExtensions/3.0/"
	 x="0px" y="0px" width="11px" height="8px" viewBox="-1 -1 11 8" overflow="visible" enable-background="new -1 -1 11 8"
	 xml:space="preserve">
<defs>
</defs>
<path fill="#FFFFFF" d="M4.328,2.817L1.662,0.151c-0.191-0.191-0.493-0.2-0.698-0.031L0.152,0.932c-0.203,0.203-0.203,0.533,0,0.736
	l3.804,3.805c0.125,0.125,0.297,0.17,0.459,0.141c0.021-0.003,0.043-0.009,0.064-0.015c0.003-0.001,0.007-0.002,0.01-0.003
	c0.078-0.024,0.152-0.065,0.214-0.127l3.805-3.804c0.191-0.192,0.2-0.494,0.031-0.699L7.727,0.155c-0.203-0.204-0.533-0.204-0.736,0
	L4.328,2.817z"/>
</svg>
