<?xml version="1.0" encoding="utf-8"?>
<!-- Generator: Adobe Illustrator 15.0.0, SVG Export Plug-In  -->
<!DOCTYPE svg PUBLIC "-//W3C//DTD SVG 1.1//EN" "http://www.w3.org/Graphics/SVG/1.1/DTD/svg11.dtd" [
	<!ENTITY ns_flows "http://ns.adobe.com/Flows/1.0/">
]>
<svg version="1.1"
	 xmlns="http://www.w3.org/2000/svg" xmlns:xlink="http://www.w3.org/1999/xlink" xmlns:a="http://ns.adobe.com/AdobeSVGViewerExtensions/3.0/"
	 x="0px" y="0px" width="21px" height="42px" viewBox="-1 -1.038 21 42"
	 overflow="visible" enable-background="new -1 -1.038 21 42" xml:space="preserve">
<defs>
</defs>
<path fill="#044B79" d="M5,7.739c0,1.008,0,5.223,0,5.223H0v7h5v20h8v-20h5.225c0,0,0.514-3.472,0.766-7c-0.716,0-5.99,0-5.99,0
	s-0.254-3.661-0.254-4.346c0-0.688,0.895-1.613,1.779-1.613c0.885,0,2.748,0,4.476,0C19,6.087,19,2.923,19,0
	c-2.305,0-4.927,0-6.084,0C4.301,0,5,6.733,5,7.739z"/>
</svg>
