<?xml version="1.0" encoding="utf-8"?>
<!-- Generator: Adobe Illustrator 15.0.0, SVG Export Plug-In  -->
<!DOCTYPE svg PUBLIC "-//W3C//DTD SVG 1.1//EN" "http://www.w3.org/Graphics/SVG/1.1/DTD/svg11.dtd" [
	<!ENTITY ns_flows "http://ns.adobe.com/Flows/1.0/">
]>
<svg version="1.1"
	 xmlns="http://www.w3.org/2000/svg" xmlns:xlink="http://www.w3.org/1999/xlink" xmlns:a="http://ns.adobe.com/AdobeSVGViewerExtensions/3.0/"
	 x="0px" y="0px" width="49px" height="47px" viewBox="-4 -1 49 47" overflow="visible" enable-background="new -4 -1 49 47"
	 xml:space="preserve">
<defs>
</defs>
<g>
	<g>
		<path fill="#D34100" d="M38,20v-5h-3v5h-5v3h5v5h3v-5h5v-3H38z M29.61,0.002L17.25,0C14.046,0,9.727,0.331,6.347,3.076
			c-2.547,2.16-3.383,5.334-3.383,8.021c0,4.553,3.558,9.168,9.841,9.168c0.594,0,1.243-0.058,1.898-0.115
			c-0.295,0.7-0.594,1.286-0.594,2.278c0,1.81,0.948,2.918,1.78,3.97c-2.667,0.178-7.65,0.469-11.323,2.688
			C1.064,31.133,0,34.109,0,36.213c0,4.324,3.979,8.396,12.577,8.396c10.196,0,15.761-5.591,15.761-11.081
			c0-4.032-2.371-6.019-4.978-8.182l-2.137-1.632c-0.651-0.528-1.54-1.229-1.54-2.512c0-1.286,0.889-2.106,1.66-2.865
			c2.49-1.925,4.979-3.972,4.979-8.293c0-4.441-2.702-6.586-4.064-7.695h3.514L29.61,0.002z M24.36,35.808
			c0,3.616-3.026,6.308-8.716,6.308c-6.343,0-10.435-2.98-10.435-7.128c0-4.148,3.793-5.549,5.098-6.016
			c2.49-0.818,5.693-0.937,6.228-0.937c0.59,0,0.887,0,1.359,0.06C22.404,31.251,24.36,32.823,24.36,35.808z M19.624,16.997
			c-0.952,0.935-2.549,1.782-4.03,1.782c-5.1,0-7.412-6.484-7.412-10.397c0-1.521,0.295-3.242,1.302-4.469
			c0.952-1.169,2.609-1.782,4.153-1.782c4.918,0,7.468,6.542,7.468,10.748C21.104,13.93,20.986,15.65,19.624,16.997z"/>
	</g>
</g>
</svg>
