<?xml version="1.0" encoding="utf-8"?>
<!-- Generator: Adobe Illustrator 15.0.0, SVG Export Plug-In  -->
<!DOCTYPE svg PUBLIC "-//W3C//DTD SVG 1.1//EN" "http://www.w3.org/Graphics/SVG/1.1/DTD/svg11.dtd" [
	<!ENTITY ns_flows "http://ns.adobe.com/Flows/1.0/">
]>
<svg version="1.1"
	 xmlns="http://www.w3.org/2000/svg" xmlns:xlink="http://www.w3.org/1999/xlink" xmlns:a="http://ns.adobe.com/AdobeSVGViewerExtensions/3.0/"
	 x="0px" y="0px" width="28px" height="19px" viewBox="-1 -1 28 19" overflow="visible" enable-background="new -1 -1 28 19"
	 xml:space="preserve">
<defs>
</defs>
<path fill="#FFFFFF" d="M24.107,5.943h-0.006c-1.141,0-2.295,1.34-2.295,0.199V0h-5.795c-1.371,0,0.238,1.389,0.238,2.76v0.006
	c0,1.371-1.111,2.482-2.482,2.482s-2.482-1.111-2.482-2.482L11.281,2.76c0-1.34,1.703-2.76,0.332-2.76H5.248v5.859
	c0,1.371-1.42-0.334-2.76-0.334L2.482,5.531C1.111,5.531,0,6.643,0,8.014c0,1.369,1.111,2.482,2.482,2.482h0.006
	c1.371,0,2.76-1.611,2.76-0.24V17h6.65c1.141,0-0.199-1.596-0.199-2.738v-0.004c0-1.141,0.924-2.064,2.064-2.064
	s2.066,0.924,2.066,2.064l0.002,0.004c0,1.115-1.416,2.738-0.275,2.738h6.25V9.801c0-1.141,1.18,0.277,2.295,0.277l0.006-0.004
	c1.139,0,2.064-0.924,2.064-2.064S25.246,5.943,24.107,5.943z"/>
</svg>
