<?xml version="1.0" encoding="utf-8"?>
<!-- Generator: Adobe Illustrator 15.0.0, SVG Export Plug-In  -->
<!DOCTYPE svg PUBLIC "-//W3C//DTD SVG 1.1//EN" "http://www.w3.org/Graphics/SVG/1.1/DTD/svg11.dtd" [
	<!ENTITY ns_flows "http://ns.adobe.com/Flows/1.0/">
]>
<svg version="1.1"
	 xmlns="http://www.w3.org/2000/svg" xmlns:xlink="http://www.w3.org/1999/xlink" xmlns:a="http://ns.adobe.com/AdobeSVGViewerExtensions/3.0/"
	 x="0px" y="0px" width="241px" height="45px" viewBox="-3.05 -4.543 241 45"
	 overflow="visible" enable-background="new -3.05 -4.543 241 45" xml:space="preserve">
<defs>
</defs>
<path fill="#FFFFFF" d="M4.14,27.176v8.819H0V22.641L17.565,5.363c-2.195-1.008-3.527-1.26-4.931-1.26H0V0h12.635
	c7.631,0,13.786,6.083,13.786,13.57c0,7.486-6.155,13.605-13.786,13.605H4.14z M5.399,23.108h7.235c5.327,0,9.646-4.283,9.646-9.538
	c0-1.656-0.432-3.204-1.728-5.436L5.399,23.108z"/>
<path fill="#FFFFFF" d="M42.441,35.995c0.576,0.324-9.503-14.398-9.503-14.398L23.04,35.995h-5.039L42.802,0h4.463v35.995H42.441z
	 M43.197,6.694l-7.811,11.303L43.197,29.3V6.694z"/>
<path fill="#FFFFFF" d="M50.976,26.672h4.211c0.396,2.952,3.024,5.22,6.155,5.22c3.42,0,6.191-2.664,6.191-6.335L50.939,12.346
	v-2.52C50.939,4.427,55.69,0,61.342,0c5.472,0,9.971,4.139,10.367,9.322h-4.212c-0.396-2.951-3.023-5.219-6.155-5.219
	c-3.419,0-6.19,2.663-6.19,6.335l16.594,13.21v2.268c0,5.544-4.68,10.079-10.403,10.079C55.871,35.995,51.371,31.855,50.976,26.672z
	"/>
<path fill="#FFFFFF" d="M74.735,26.672h4.211c0.396,2.952,3.024,5.22,6.155,5.22c3.42,0,6.191-2.664,6.191-6.335L74.699,12.346
	v-2.52C74.699,4.427,79.45,0,85.102,0c5.472,0,9.971,4.139,10.367,9.322h-4.212c-0.396-2.951-3.023-5.219-6.155-5.219
	c-3.419,0-6.19,2.663-6.19,6.335l16.594,13.21v2.268c0,5.544-4.68,10.079-10.403,10.079C79.631,35.995,75.131,31.855,74.735,26.672z
	"/>
<path fill="#FFFFFF" d="M116.135,35.995V0h3.924v35.995H116.135z"/>
<path fill="#FFFFFF" d="M129.886,4.104l9.143,8.818v23.073h-4.176V14.614L124.45,4.535V0h23.865v4.104H129.886z"/>
<path fill="#FFFFFF" d="M166.569,18.033c0-9.935,7.955-18.033,17.71-18.033s17.71,8.062,17.71,17.961
	c0,9.936-7.955,18.034-17.71,18.034S166.569,27.933,166.569,18.033z M173.265,9.826c-1.836,2.952-2.592,5.472-2.592,8.207
	c0,7.631,6.083,13.858,13.606,13.858c2.771,0,5.363-0.828,8.278-2.808L173.265,9.826z M176.036,6.911l19.258,19.257
	c1.836-2.951,2.592-5.471,2.592-8.207c0-7.631-6.048-13.857-13.606-13.857C181.508,4.104,178.916,4.931,176.036,6.911z"/>
<path fill="#FFFFFF" d="M229.206,0h4.5v35.995h-4.5L209.121,6.694v29.301h-4.14V0h4.499l9.863,14.397L229.206,0z M229.603,6.659
	l-7.775,11.338l7.775,11.339V6.659z"/>
</svg>
