<?xml version="1.0" encoding="utf-8"?>
<!-- Generator: Adobe Illustrator 15.0.0, SVG Export Plug-In  -->
<!DOCTYPE svg PUBLIC "-//W3C//DTD SVG 1.1//EN" "http://www.w3.org/Graphics/SVG/1.1/DTD/svg11.dtd" [
	<!ENTITY ns_flows "http://ns.adobe.com/Flows/1.0/">
]>
<svg version="1.1"
	 xmlns="http://www.w3.org/2000/svg" xmlns:xlink="http://www.w3.org/1999/xlink" xmlns:a="http://ns.adobe.com/AdobeSVGViewerExtensions/3.0/"
	 x="0px" y="0px" width="286px" height="48px" viewBox="-5.758 -5.543 286 48"
	 overflow="visible" enable-background="new -5.758 -5.543 286 48" xml:space="preserve">
<defs>
</defs>
<path fill="#FFFFFF" d="M0.036,26.672h4.211c0.396,2.952,3.024,5.22,6.155,5.22c3.42,0,6.191-2.664,6.191-6.335L0,12.346v-2.52
	C0,4.427,4.751,0,10.402,0c5.472,0,9.971,4.139,10.367,9.322h-4.212c-0.396-2.951-3.023-5.219-6.155-5.219
	c-3.419,0-6.19,2.663-6.19,6.335l16.594,13.21v2.268c0,5.544-4.68,10.079-10.403,10.079C4.932,35.995,0.432,31.855,0.036,26.672z"/>
<path fill="#FFFFFF" d="M23.76,22.461V0h4.535l18.826,18.537V0h4.104v22.461c0,7.451-6.155,13.534-13.751,13.534
	C29.915,35.995,23.76,29.912,23.76,22.461z M27.863,5.327v17.134c0,5.219,4.319,9.467,9.61,9.467c4.572,0,8.424-3.168,9.503-7.775
	L27.863,5.327z"/>
<path fill="#FFFFFF" d="M77.217,25.988c0,5.436-4.499,10.007-10.043,10.007H54.468V31.46l11.734-11.447H54.468V0h12.418
	c5.724,0,10.367,4.499,10.367,10.007c0,2.951-1.332,5.615-4.067,7.99C75.921,20.409,77.217,23.037,77.217,25.988z M58.644,4.104
	v11.878h8.242c3.42,0,6.191-2.663,6.191-5.975c0-3.276-2.808-5.903-6.191-5.903H58.644z M59.903,31.892h6.982
	c3.384,0,6.191-2.592,6.191-5.903c0-1.584-0.684-3.06-2.268-4.68L59.903,31.892z"/>
<path fill="#FFFFFF" d="M108.859,35.995v-6.911L96.908,17.205l-11.95,11.879v6.911h-4.104V0h4.535l11.519,11.446L108.427,0h4.5
	v35.995H108.859z M84.958,5.327v17.998l9.071-8.999L84.958,5.327z M108.859,5.327l-9.071,8.999l9.071,8.999V5.327z"/>
<path fill="#FFFFFF" d="M118.078,35.995V0h3.924v35.995H118.078z"/>
<path fill="#FFFFFF" d="M126.431,26.672h4.211c0.396,2.952,3.024,5.22,6.155,5.22c3.42,0,6.191-2.664,6.191-6.335l-16.594-13.211
	v-2.52c0-5.399,4.751-9.826,10.402-9.826c5.472,0,9.971,4.139,10.367,9.322h-4.212c-0.396-2.951-3.023-5.219-6.155-5.219
	c-3.419,0-6.19,2.663-6.19,6.335l16.594,13.21v2.268c0,5.544-4.68,10.079-10.403,10.079
	C131.326,35.995,126.826,31.855,126.431,26.672z"/>
<path fill="#FFFFFF" d="M150.19,26.672h4.211c0.396,2.952,3.024,5.22,6.155,5.22c3.42,0,6.191-2.664,6.191-6.335l-16.594-13.211
	v-2.52c0-5.399,4.751-9.826,10.402-9.826c5.472,0,9.971,4.139,10.367,9.322h-4.212c-0.396-2.951-3.023-5.219-6.155-5.219
	c-3.419,0-6.19,2.663-6.19,6.335l16.594,13.21v2.268c0,5.544-4.68,10.079-10.403,10.079
	C155.086,35.995,150.586,31.855,150.19,26.672z"/>
<path fill="#FFFFFF" d="M175.389,35.995V0h3.924v35.995H175.389z"/>
<path fill="#FFFFFF" d="M183.705,18.033C183.705,8.099,191.66,0,201.415,0s17.71,8.062,17.71,17.961
	c0,9.936-7.955,18.034-17.71,18.034S183.705,27.933,183.705,18.033z M190.4,9.826c-1.836,2.952-2.592,5.472-2.592,8.207
	c0,7.631,6.083,13.858,13.606,13.858c2.771,0,5.363-0.828,8.278-2.808L190.4,9.826z M193.172,6.911l19.258,19.257
	c1.836-2.951,2.592-5.471,2.592-8.207c0-7.631-6.048-13.857-13.606-13.857C198.644,4.104,196.052,4.931,193.172,6.911z"/>
<path fill="#FFFFFF" d="M246.341,0h4.5v35.995h-4.5L226.256,6.694v29.301h-4.14V0h4.499l9.863,14.397L246.341,0z M246.737,6.659
	l-7.775,11.338l7.775,11.339V6.659z"/>
<path fill="#FFFFFF" d="M254.553,26.672h4.211c0.396,2.952,3.024,5.22,6.155,5.22c3.42,0,6.191-2.664,6.191-6.335l-16.594-13.211
	v-2.52c0-5.399,4.751-9.826,10.402-9.826c5.472,0,9.971,4.139,10.367,9.322h-4.212c-0.396-2.951-3.023-5.219-6.155-5.219
	c-3.419,0-6.19,2.663-6.19,6.335l16.594,13.21v2.268c0,5.544-4.68,10.079-10.403,10.079
	C259.448,35.995,254.948,31.855,254.553,26.672z"/>
</svg>
