<?xml version="1.0" encoding="utf-8"?>
<!-- Generator: Adobe Illustrator 15.0.0, SVG Export Plug-In  -->
<!DOCTYPE svg PUBLIC "-//W3C//DTD SVG 1.1//EN" "http://www.w3.org/Graphics/SVG/1.1/DTD/svg11.dtd" [
	<!ENTITY ns_flows "http://ns.adobe.com/Flows/1.0/">
]>
<svg version="1.1"
	 xmlns="http://www.w3.org/2000/svg" xmlns:xlink="http://www.w3.org/1999/xlink" xmlns:a="http://ns.adobe.com/AdobeSVGViewerExtensions/3.0/"
	 x="0px" y="0px" width="45px" height="37px" viewBox="-0.798 -1 45 37"
	 overflow="visible" enable-background="new -0.798 -1 45 37" xml:space="preserve">
<defs>
</defs>
<path fill="#1ABC9C" d="M43.202,4.157c-1.589,0.705-3.297,1.181-5.091,1.396c1.83-1.097,3.235-2.833,3.897-4.904
	c-1.712,1.016-3.609,1.753-5.628,2.151C34.764,1.077,32.46,0,29.911,0c-4.895,0-8.864,3.968-8.864,8.864
	c0,0.694,0.078,1.371,0.229,2.02c-7.366-0.37-13.897-3.897-18.27-9.261c-0.763,1.31-1.2,2.833-1.2,4.456
	c0,3.076,1.565,5.789,3.943,7.378c-1.452-0.046-2.819-0.445-4.015-1.109c0,0.037,0,0.074,0,0.111c0,4.294,3.056,7.876,7.109,8.691
	c-0.743,0.203-1.526,0.312-2.335,0.312c-0.57,0-1.126-0.056-1.667-0.159c1.128,3.521,4.401,6.084,8.279,6.155
	c-3.034,2.377-6.855,3.795-11.009,3.795c-0.715,0-1.421-0.042-2.113-0.125c3.922,2.515,8.581,3.982,13.586,3.982
	c16.305,0,25.22-13.507,25.22-25.219c0-0.384-0.009-0.767-0.025-1.147C40.512,7.495,42.015,5.934,43.202,4.157z"/>
</svg>
