<?xml version="1.0" encoding="utf-8"?>
<!-- Generator: Adobe Illustrator 15.0.0, SVG Export Plug-In  -->
<!DOCTYPE svg PUBLIC "-//W3C//DTD SVG 1.1//EN" "http://www.w3.org/Graphics/SVG/1.1/DTD/svg11.dtd" [
	<!ENTITY ns_flows "http://ns.adobe.com/Flows/1.0/">
]>
<svg version="1.1"
	 xmlns="http://www.w3.org/2000/svg" xmlns:xlink="http://www.w3.org/1999/xlink" xmlns:a="http://ns.adobe.com/AdobeSVGViewerExtensions/3.0/"
	 x="0px" y="0px" width="535px" height="86px" viewBox="-5.237 -6.594 535 86"
	 overflow="visible" enable-background="new -5.237 -6.594 535 86" xml:space="preserve">
<defs>
</defs>
<g>
	<g>
		<path fill="#FFFFFF" d="M8.039,36.315V0H0v44c0,14.598,12.057,26.514,26.865,26.514c14.879,0,26.937-11.916,26.937-26.514V0
			h-8.885L8.039,36.315z M45.764,44c0,10.226-8.463,18.546-18.899,18.546c-8.883,0-16.429-6.206-18.544-15.231l37.443-36.878V44z
			 M96.716,28.206L77.397,0h-8.814v70.514h8.109V13.116l39.346,57.397h8.814V0h-8.814L96.716,28.206z M116.813,57.469l-15.23-22.211
			l15.23-22.212V57.469z M172.018,22.424L149.456,0h-8.886v70.514h8.04V56.975l23.408-23.27l23.41,23.27v13.539h7.969V0h-8.813
			L172.018,22.424z M148.61,45.692V10.437l17.769,17.628L148.61,45.692z M195.428,45.692L177.66,28.064l17.769-17.628V45.692z
			 M214.661,70.514h9.871l19.392-28.205c0,0,19.745,28.84,18.615,28.205h9.448V0h-8.743L214.661,70.514z M264.019,57.398
			l-15.301-22.141l15.301-22.142V57.398z M311.461,0H286.71v8.039h24.751c2.75,0,5.359,0.494,9.66,2.469L286.71,44.354v26.16h8.11
			V53.238h16.641c14.949,0,27.007-11.987,27.007-26.654S326.411,0,311.461,0z M311.461,45.27h-14.173l29.686-29.333
			c2.539,4.372,3.385,7.404,3.385,10.647C330.359,36.879,321.898,45.27,311.461,45.27z M371.124,0h-24.75v8.039h24.75
			c2.749,0,5.359,0.494,9.66,2.469l-34.41,33.846v26.16h8.109V53.238h16.641c14.948,0,27.007-11.987,27.007-26.654
			S386.072,0,371.124,0z M371.124,45.27h-14.173l29.686-29.333c2.539,4.372,3.385,7.404,3.385,10.647
			C390.021,36.879,381.56,45.27,371.124,45.27z M409.061,8.744l31.379,22.564h-31.379v39.205h44v-8.039h-35.82V39.206h35.82v-8.673
			L422.106,8.039h30.955V0h-44V8.744z M488.72,0.071L466.791,0v70.514h21.93c19.321,0,34.974-15.865,34.974-35.256
			C523.694,15.865,508.042,0.142,488.72,0.071z M474.899,7.969l13.821,0.141c7.052,0,13.468,2.68,19.392,8.18l-33.213,32.859V7.969z
			 M488.72,62.475h-15.937l40.052-39.628c2.045,5.288,2.82,8.743,2.82,12.411C515.656,50.206,503.598,62.475,488.72,62.475z"/>
	</g>
</g>
</svg>
